<svg xmlns="http://www.w3.org/2000/svg" viewBox="0 0 128 128" fill="none">
	<rect width="128" height="128" rx="30" fill="#EB5332"/>
	<path d="M39 26h50a9 9 0 0 1 9 9v58a9 9 0 0 1-9 9H39a9 9 0 0 1-9-9V35a9 9 0 0 1 9-9Z" fill="#FFF8F3"/>
	<path d="M47 43h34M47 57h24M47 71h34" stroke="#111111" stroke-width="8" stroke-linecap="round"/>
	<path d="M66 91c14 0 25-9 25-22 0-7-3-13-9-17M62 37c-14 0-25 9-25 22 0 7 3 13 9 17" stroke="#EB5332" stroke-width="8" stroke-linecap="round"/>
	<path d="M83 51h15V36M45 77H30v15" stroke="#EB5332" stroke-width="8" stroke-linecap="round" stroke-linejoin="round"/>
</svg>
